<svg width="20" height="20" viewBox="0 0 24 24" fill="none" xmlns="http://www.w3.org/2000/svg">
    <g fill="current">
        <path d="M16.84 5.796a.75.75 0 01.743.649l.007.101v13.618a.75.75 0 01-1.494.102l-.006-.102V6.546a.75.75 0 01.75-.75z"></path>
        <path d="M20.386 15.539a.75.75 0 011.135.974l-.072.084-4.078 4.097a.75.75 0 01-.979.073l-.084-.073-4.078-4.097a.75.75 0 01.98-1.13l.083.072 3.546 3.562 3.547-3.562zM6.911 3.083a.75.75 0 01.743.648l.007.102V17.45a.75.75 0 01-1.493.101l-.007-.101V3.833a.75.75 0 01.75-.75z"></path>
        <path d="M6.38 3.303a.75.75 0 01.979-.073l.084.073L11.52 7.4a.75.75 0 01-.98 1.13l-.084-.072-3.546-3.563-3.5463.563a.75.75 0 01-.976.075l-.085-.072a.75.75 0 01-.074-.977l.072-.084L6.38 3.303z"></path>
    </g>
</svg>
